<svg version="1.1" id="Layer_1" xmlns="http://www.w3.org/2000/svg" xmlns:xlink="http://www.w3.org/1999/xlink" x="0px" y="0px"
	 width="100%" viewBox="0 0 1200 1200" enable-background="new 0 0 1200 1200" xml:space="preserve">
<path fill="#FFFFFF" opacity="1.000000" stroke="none" 
	d="
M562.000000,1201.000000 
	C374.666656,1201.000000 187.833328,1201.000000 1.000000,1201.000000 
	C1.000000,801.000000 1.000000,401.000000 1.000000,1.000000 
	C401.000000,1.000000 801.000000,1.000000 1201.000000,1.000000 
	C1201.000000,401.000000 1201.000000,801.000000 1201.000000,1201.000000 
	C988.166687,1201.000000 775.333313,1201.000000 562.000000,1201.000000 
M832.795959,542.307373 
	C829.776550,540.591125 826.742981,538.899109 823.740173,537.154297 
	C811.593506,530.096497 799.456238,523.022400 787.557678,515.348083 
	C801.457153,507.285522 815.330139,499.176666 829.279907,491.201996 
	C831.867249,489.722900 832.881592,488.010162 832.885010,484.918121 
	C832.907104,464.813171 833.198120,444.708679 833.339905,424.603577 
	C833.369629,420.392792 833.144287,416.180237 832.738892,411.342377 
	C829.415894,409.470093 826.076721,407.625824 822.772400,405.721222 
	C785.736328,384.374207 748.689758,363.045349 711.677917,341.656342 
	C675.958191,321.014008 640.289490,300.283325 604.531677,279.707458 
	C602.947815,278.796082 600.700745,279.037415 598.103760,278.962646 
	C568.287598,296.354980 538.503845,313.803345 508.647552,331.126526 
	C463.583344,357.273621 418.481628,383.356262 373.346008,409.379822 
	C370.264282,411.156616 369.111420,413.172333 369.091522,416.836609 
	C368.978729,437.619446 368.498352,458.400085 368.228668,479.182587 
	C368.185150,482.537567 368.570740,485.898071 369.218109,489.777435 
	C384.374512,498.535553 399.530945,507.293671 414.462738,516.661194 
	C400.550049,524.724609 386.664490,532.835510 372.700348,540.808838 
	C370.102386,542.292175 369.132446,544.024902 369.114594,547.102051 
	C368.991394,568.361328 368.601990,589.618896 368.380188,610.877930 
	C368.348358,613.926697 368.758057,616.980103 369.260986,620.657532 
	C383.186401,628.683838 397.117126,636.700928 411.035889,644.738831 
	C429.406097,655.347351 447.760223,665.983765 466.133698,676.586609 
	C484.359039,687.104004 502.604492,697.586670 520.832520,708.099365 
	C539.636353,718.944214 558.401855,729.855774 577.240906,740.639038 
	C585.120239,745.149048 593.145691,749.403625 601.800110,753.863647 
	C602.566895,753.558655 603.387207,753.345642 604.092590,752.935120 
	C622.005310,742.510742 639.887817,732.034302 657.812134,721.629883 
	C714.867615,688.511292 771.929199,655.403076 829.029297,622.361450 
	C831.774780,620.772766 832.907959,619.044922 832.894958,615.715149 
	C832.800232,591.465698 832.959900,567.215210 832.795959,542.307373 
M306.176880,921.659363 
	C315.656036,908.623291 317.245300,893.863831 315.423859,878.442139 
	C314.098114,867.217468 310.181885,857.173157 300.960144,849.933350 
	C284.564423,837.061584 265.783875,841.496521 247.360901,841.814453 
	C247.360901,873.619202 247.360901,904.564209 247.360901,936.291931 
	C258.416718,936.291931 269.346313,936.876221 280.183075,936.123474 
	C290.508606,935.406250 299.056793,930.258667 306.176880,921.659363 
M620.427979,877.195618 
	C619.095093,876.209045 617.723633,875.270203 616.436401,874.227173 
	C612.070557,870.689941 610.832275,865.925964 612.187012,860.780029 
	C613.470032,855.906555 617.230896,852.895203 622.098816,852.025513 
	C626.137512,851.304016 630.375183,850.958618 634.445374,851.325684 
	C640.297363,851.853577 646.077393,853.179504 652.100586,854.200806 
	C653.080383,851.254578 654.060913,848.305908 655.256531,844.710632 
	C640.449341,840.662476 626.012573,838.152954 611.868652,845.109375 
	C608.268677,846.879944 605.001587,850.524414 602.987000,854.099792 
	C596.617676,865.403259 601.491272,880.173279 613.554626,886.946533 
	C621.496521,891.405701 629.843933,895.146729 637.751465,899.661621 
	C643.902771,903.173889 646.946045,908.627869 645.195312,915.974304 
	C643.553650,922.863586 638.545776,925.875549 632.099609,927.195984 
	C621.657776,929.334900 611.754395,927.054016 601.850037,923.250671 
	C600.616577,926.503540 599.466797,929.535767 597.919250,933.616882 
	C603.769165,934.972900 609.143066,937.063049 614.591736,937.280762 
	C622.456604,937.594788 630.589844,937.524963 638.219604,935.848694 
	C648.667664,933.553223 655.118652,926.261169 656.677002,915.399902 
	C658.275879,904.256470 653.369995,895.905029 644.230530,890.222839 
	C636.766174,885.582092 628.757812,881.816406 620.427979,877.195618 
M943.535095,906.932312 
	C941.171997,904.735168 938.808899,902.538025 936.942810,900.802917 
	C945.261292,890.248474 953.287415,880.065002 961.530823,869.605774 
	C953.450256,867.748352 947.824158,869.055969 943.664307,876.158997 
	C939.826965,882.711304 934.867126,888.637085 930.094971,894.593140 
	C928.569702,896.496826 926.064880,897.615723 922.846985,899.928345 
	C922.846985,879.444092 922.846985,860.858521 922.846985,842.263123 
	C919.142883,842.263123 915.890686,842.263123 912.509155,842.263123 
	C912.509155,873.587646 912.509155,904.637512 912.509155,935.758789 
	C916.094360,935.758789 919.350403,935.758789 923.058777,935.758789 
	C923.058777,925.762268 923.058777,916.005798 923.058777,906.373352 
	C927.336792,905.270142 929.872681,906.539185 932.195312,909.893616 
	C937.672852,917.804382 943.553467,925.440796 949.426270,933.068665 
	C950.415771,934.353882 952.099915,935.685791 953.603943,935.874695 
	C956.951904,936.295227 960.388977,936.006042 964.914978,936.006042 
	C957.438782,925.886963 950.666321,916.720276 943.535095,906.932312 
M510.969574,895.288025 
	C511.384064,902.566101 511.062500,909.980164 512.376953,917.091919 
	C514.627686,929.269104 524.702698,937.282227 537.093140,937.997620 
	C551.804504,938.846924 562.155151,932.571411 566.524170,920.056885 
	C570.079468,909.873352 570.223206,899.415161 567.802002,889.077698 
	C565.195374,877.948303 558.903992,869.799194 546.890747,867.694641 
	C535.378906,865.677917 524.502930,867.165161 517.452393,877.418945 
	C514.118896,882.267090 513.092712,888.701721 510.969574,895.288025 
M378.500366,903.006348 
	C386.251831,903.006348 394.003296,903.006348 401.814117,903.006348 
	C402.066681,899.568359 402.339813,896.923279 402.442902,894.271606 
	C403.063019,878.322205 396.376129,869.383301 382.294220,867.269104 
	C366.338593,864.873596 353.240753,872.774353 349.403351,887.244995 
	C346.748199,897.257568 346.877045,907.419067 349.326569,917.369873 
	C351.399689,925.791443 356.129120,932.715942 364.708588,935.763733 
	C377.087494,940.161316 388.845367,938.360474 400.251556,931.208008 
	C398.912109,928.548340 397.681427,926.104675 396.311035,923.383545 
	C386.965210,929.430481 377.283539,931.648743 367.632751,925.560913 
	C359.688019,920.549133 358.964569,912.044739 358.817627,903.006348 
	C365.247467,903.006348 371.374023,903.006348 378.500366,903.006348 
M787.285767,884.702759 
	C787.532593,889.055786 787.779419,893.408813 787.966492,896.709229 
	C777.802917,898.217468 768.674988,898.929565 759.890137,901.057922 
	C751.251709,903.150879 747.183350,909.639771 747.187683,918.451843 
	C747.191711,926.610901 752.101929,933.646851 760.183228,935.875122 
	C771.210632,938.915710 780.823914,936.320923 788.564453,926.910522 
	C790.759094,931.552551 790.728455,938.852356 798.323242,935.766357 
	C798.323242,923.805603 798.366577,912.077271 798.305359,900.349609 
	C798.273560,894.255066 798.355896,888.135681 797.834045,882.075195 
	C797.377991,876.779663 794.447571,872.407166 789.513550,870.479858 
	C776.453491,865.378113 763.953369,868.233459 751.240662,873.687317 
	C752.431580,876.684265 753.383606,879.080139 754.430908,881.715759 
	C755.966675,881.108032 757.268555,880.302185 758.660706,880.091187 
	C765.321716,879.081787 771.987305,877.798828 778.691406,877.494141 
	C782.584473,877.317261 786.087097,879.397034 787.285767,884.702759 
M482.187347,878.864746 
	C483.497528,875.719116 484.807739,872.573486 486.299347,868.992310 
	C484.472137,868.992310 483.280945,869.176697 482.166962,868.961426 
	C476.380615,867.843323 473.828461,870.427490 471.959076,875.895020 
	C467.036987,890.291077 461.386322,904.438110 456.091522,918.509705 
	C456.067047,918.474976 455.570099,918.000366 455.346649,917.420410 
	C450.348602,904.447937 445.488647,891.421204 440.371643,878.496033 
	C436.510773,868.743713 436.367554,868.796570 426.059296,869.019043 
	C425.626343,869.028381 425.197510,869.228149 424.593689,869.383789 
	C424.884949,870.295044 425.072937,871.103149 425.393646,871.854553 
	C434.237732,892.575256 443.057678,913.306641 452.040344,933.967102 
	C452.605194,935.266296 454.518707,936.855408 455.696930,936.772705 
	C456.953979,936.684448 458.601349,934.992371 459.189178,933.619690 
	C466.882111,915.656189 474.417328,897.625061 482.187347,878.864746 
M831.675476,906.163330 
	C832.166992,909.945190 832.321411,913.808838 833.216187,917.492798 
	C835.464966,926.751343 840.479736,934.087158 850.064026,936.678467 
	C860.858582,939.596924 871.273071,938.295044 880.941284,931.966309 
	C879.718262,929.094849 878.696350,926.695618 877.746826,924.466309 
	C874.390137,925.823853 871.416321,927.340271 868.266724,928.243103 
	C857.609497,931.298096 847.336975,925.871277 844.471619,915.223511 
	C842.070190,906.299500 841.823608,897.178589 844.844910,888.214844 
	C847.602417,880.033691 852.972595,875.771240 861.593689,876.145142 
	C866.600098,876.362244 871.547668,877.936035 876.764038,878.946167 
	C877.053833,878.271851 877.523315,877.043091 878.098511,875.865967 
	C879.947021,872.083008 879.276306,869.556030 874.693604,869.028809 
	C868.795959,868.350342 862.840637,866.906860 856.999817,867.262939 
	C844.792480,868.007202 835.705750,876.113953 833.316467,887.941528 
	C832.175232,893.590942 832.185913,899.473022 831.675476,906.163330 
M704.708801,868.974243 
	C704.077637,867.721313 702.980957,866.496826 702.902344,865.210144 
	C702.662659,861.288391 702.815369,857.342651 702.815369,852.909912 
	C698.791809,854.121643 695.387390,855.146912 691.839844,856.215210 
	C691.839844,860.656128 691.839844,864.607605 691.839844,869.003906 
	C688.301270,869.003906 685.061096,869.003906 681.619141,869.003906 
	C681.619141,872.194275 681.619141,874.921387 681.619141,878.100342 
	C685.143982,878.100342 688.394165,878.100342 691.989380,878.100342 
	C691.989380,880.348450 691.988892,882.147522 691.989380,883.946594 
	C691.992676,896.609436 691.796204,909.276367 692.057495,921.933838 
	C692.304749,933.915039 697.528381,938.811035 709.195618,937.881409 
	C714.059387,937.493835 718.822571,935.844543 724.062866,934.672424 
	C723.101746,931.312561 722.362183,928.727173 721.685730,926.362549 
	C718.014587,927.348694 715.036072,928.513977 711.960693,928.893372 
	C706.717773,929.540100 703.224060,926.996155 703.121704,921.839539 
	C702.835144,907.398743 703.021912,892.948547 703.021912,877.880737 
	C709.136414,877.880737 715.021545,877.880737 720.773804,877.880737 
	C720.773804,874.643494 720.773804,872.032288 720.773804,868.987305 
	C715.591248,868.987305 710.632202,868.987305 704.708801,868.974243 
z"/>
<path fill="#1972A4" opacity="1.000000" stroke="none" 
	d="
M833.036438,411.968475 
	C833.144287,416.180237 833.369629,420.392792 833.339905,424.603577 
	C833.198120,444.708679 832.907104,464.813171 832.885010,484.918121 
	C832.881592,488.010162 831.867249,489.722900 829.279907,491.201996 
	C815.330139,499.176666 801.457153,507.285522 787.081299,515.755005 
	C768.208252,526.798584 749.786255,537.392090 731.436340,548.108948 
	C727.811646,550.225891 724.464172,552.817688 720.626587,555.127808 
	C719.202637,555.474182 718.062012,555.747375 717.090942,556.312256 
	C685.349365,574.776245 653.649414,593.312073 621.876160,611.721313 
	C615.069824,615.664734 608.006348,619.164490 601.122803,622.465271 
	C601.455994,619.950378 601.954895,617.839844 601.963440,615.727295 
	C602.029175,599.483459 601.899292,583.238281 602.046875,566.995544 
	C602.110291,560.019165 602.688477,553.047424 603.309448,545.871704 
	C614.982544,538.979614 626.418701,532.355713 637.757202,525.568665 
	C642.793701,522.553894 647.632935,519.209717 652.901978,516.075378 
	C671.289673,505.788605 689.366394,495.492035 707.362061,485.055878 
	C711.411743,482.707428 715.178833,479.871796 719.453430,477.233856 
	C721.190186,476.647949 722.632568,476.233154 723.895996,475.507019 
	C736.681458,468.158417 749.456238,460.790771 762.174255,453.326385 
	C763.498535,452.549133 764.436646,451.113983 765.902588,450.063049 
	C767.453491,449.662109 768.737793,449.323761 769.845947,448.681427 
	C790.921875,436.465210 811.976990,424.213104 833.036438,411.968475 
z"/>
<path fill="#1972A4" opacity="1.000000" stroke="none" 
	d="
M368.963440,620.031372 
	C368.758057,616.980103 368.348358,613.926697 368.380188,610.877930 
	C368.601990,589.618896 368.991394,568.361328 369.114594,547.102051 
	C369.132446,544.024902 370.102386,542.292175 372.700348,540.808838 
	C386.664490,532.835510 400.550049,524.724609 414.930420,516.249756 
	C433.816315,505.183014 452.262512,494.575714 470.628693,483.831573 
	C474.248077,481.714264 477.558899,479.069427 481.375000,476.747559 
	C482.928986,476.368622 484.207123,476.060669 485.298431,475.429657 
	C523.132385,453.553009 560.948608,431.645813 599.069458,409.957184 
	C599.727173,410.904602 600.401184,411.641846 600.392029,412.370544 
	C600.124634,433.666656 599.762695,454.961639 599.493164,476.257751 
	C599.452637,479.457336 599.793335,482.661774 599.604980,485.933167 
	C589.736206,491.614075 580.193298,497.180817 570.712891,502.852142 
	C563.534729,507.146210 556.436401,511.573700 548.925293,515.976318 
	C547.930176,516.236755 547.261658,516.375549 546.701843,516.701294 
	C527.587830,527.823914 508.457794,538.919556 489.416534,550.165588 
	C487.342499,551.390503 485.788879,553.496643 483.613220,555.086060 
	C481.693329,555.407349 479.988739,555.545898 478.641541,556.312500 
	C469.349091,561.600220 460.081085,566.935425 450.909302,572.429138 
	C445.892883,575.433838 441.079742,578.777893 435.799255,581.959961 
	C432.910675,583.195251 430.317566,584.301331 427.897522,585.705688 
	C408.234497,597.115967 388.603882,608.582153 368.963440,620.031372 
z"/>
<path fill="#1A72A4" opacity="1.000000" stroke="none" 
	d="
M368.757935,489.256042 
	C368.570740,485.898071 368.185150,482.537567 368.228668,479.182587 
	C368.498352,458.400085 368.978729,437.619446 369.091522,416.836609 
	C369.111420,413.172333 370.264282,411.156616 373.346008,409.379822 
	C418.481628,383.356262 463.583344,357.273621 508.647552,331.126526 
	C538.503845,313.803345 568.287598,296.354980 598.753357,279.039612 
	C599.732544,279.483643 600.353394,279.853485 600.349915,280.217285 
	C600.141235,301.736237 599.861633,323.254456 599.645996,344.773346 
	C599.612305,348.136505 599.847717,351.502350 599.606201,354.936157 
	C596.891541,356.482025 594.569458,358.027832 592.161316,359.425140 
	C544.107300,387.307556 496.031891,415.153290 448.001709,443.076691 
	C443.912445,445.454102 440.110901,448.326324 435.800018,450.959961 
	C433.178223,452.015839 430.839844,452.922241 428.700348,454.169739 
	C408.700104,465.831818 388.733948,477.552399 368.757935,489.256042 
z"/>
<path fill="#1A72A4" opacity="1.000000" stroke="none" 
	d="
M833.039185,542.965088 
	C832.959900,567.215210 832.800232,591.465698 832.894958,615.715149 
	C832.907959,619.044922 831.774780,620.772766 829.029297,622.361450 
	C771.929199,655.403076 714.867615,688.511292 657.812134,721.629883 
	C639.887817,732.034302 622.005310,742.510742 604.092590,752.935120 
	C603.387207,753.345642 602.566895,753.558655 601.500610,753.420837 
	C601.466980,750.867249 601.955383,748.757385 601.963379,746.645630 
	C602.026794,729.914673 601.905090,713.182617 602.046082,696.452637 
	C602.100586,689.990234 602.687439,683.532349 603.308350,676.870361 
	C604.261353,676.188721 604.904968,675.652649 605.618835,675.237610 
	C657.491516,645.082275 709.375000,614.945435 761.223816,584.749084 
	C762.847412,583.803467 764.118408,582.252502 765.902466,581.062622 
	C767.453491,580.661560 768.737854,580.323181 769.846008,579.680847 
	C790.922791,567.463684 811.978821,555.210632 833.039185,542.965088 
z"/>
<path fill="#5D9CBF" opacity="1.000000" stroke="none" 
	d="
M599.958740,354.866974 
	C599.847717,351.502350 599.612305,348.136505 599.645996,344.773346 
	C599.861633,323.254456 600.141235,301.736237 600.349915,280.217285 
	C600.353394,279.853485 599.732544,279.483643 599.082764,278.929199 
	C600.700745,279.037415 602.947815,278.796082 604.531677,279.707458 
	C640.289490,300.283325 675.958191,321.014008 711.677917,341.656342 
	C748.689758,363.045349 785.736328,384.374207 822.772400,405.721222 
	C826.076721,407.625824 829.415894,409.470093 832.887695,411.655426 
	C811.976990,424.213104 790.921875,436.465210 769.845947,448.681427 
	C768.737793,449.323761 767.453491,449.662109 765.510132,450.049438 
	C754.077820,443.967712 743.326294,438.083191 732.707703,431.967834 
	C710.029602,418.907288 687.413391,405.739349 664.785217,392.592316 
	C643.167542,380.032440 621.566895,367.443298 599.958740,354.866974 
z"/>
<path fill="#5D9CBF" opacity="1.000000" stroke="none" 
	d="
M603.031799,677.072388 
	C602.687439,683.532349 602.100586,689.990234 602.046082,696.452637 
	C601.905090,713.182617 602.026794,729.914673 601.963379,746.645630 
	C601.955383,748.757385 601.466980,750.867249 601.152954,753.376160 
	C593.145691,749.403625 585.120239,745.149048 577.240906,740.639038 
	C558.401855,729.855774 539.636353,718.944214 520.832520,708.099365 
	C502.604492,697.586670 484.359039,687.104004 466.133698,676.586609 
	C447.760223,665.983765 429.406097,655.347351 411.035889,644.738831 
	C397.117126,636.700928 383.186401,628.683838 369.112213,620.344482 
	C388.603882,608.582153 408.234497,597.115967 427.897522,585.705688 
	C430.317566,584.301331 432.910675,583.195251 436.150177,581.937378 
	C444.368561,586.141174 451.898560,590.292542 459.344910,594.588867 
	C480.121399,606.576355 500.865417,618.620056 521.617981,630.648987 
	C541.947327,642.432556 562.243774,654.273254 582.613464,665.986572 
	C589.325195,669.846008 596.220459,673.386169 603.031799,677.072388 
z"/>
<path fill="#5D9CBF" opacity="1.000000" stroke="none" 
	d="
M368.988037,489.516724 
	C388.733948,477.552399 408.700104,465.831818 428.700348,454.169739 
	C430.839844,452.922241 433.178223,452.015839 436.151794,450.937805 
	C451.590179,459.505585 466.301117,468.086731 481.012024,476.667877 
	C477.558899,479.069427 474.248077,481.714264 470.628693,483.831573 
	C452.262512,494.575714 433.816315,505.183014 415.042755,515.945007 
	C399.530945,507.293671 384.374512,498.535553 368.988037,489.516724 
z"/>
<path fill="#5D9CBF" opacity="1.000000" stroke="none" 
	d="
M832.917542,542.636230 
	C811.978821,555.210632 790.922791,567.463684 769.846008,579.680847 
	C768.737854,580.323181 767.453491,580.661560 765.512329,581.049988 
	C756.626038,576.287231 748.441284,571.679138 740.342651,566.924561 
	C733.837341,563.105347 727.436218,559.108521 720.988892,555.190552 
	C724.464172,552.817688 727.811646,550.225891 731.436340,548.108948 
	C749.786255,537.392090 768.208252,526.798584 786.960266,516.058105 
	C799.456238,523.022400 811.593506,530.096497 823.740173,537.154297 
	C826.742981,538.899109 829.776550,540.591125 832.917542,542.636230 
z"/>
<path fill="#1F75A6" opacity="1.000000" stroke="none" 
	d="
M305.930969,921.919495 
	C299.056793,930.258667 290.508606,935.406250 280.183075,936.123474 
	C269.346313,936.876221 258.416718,936.291931 247.360901,936.291931 
	C247.360901,904.564209 247.360901,873.619202 247.360901,841.814453 
	C265.783875,841.496521 284.564423,837.061584 300.960144,849.933350 
	C310.181885,857.173157 314.098114,867.217468 315.423859,878.442139 
	C317.245300,893.863831 315.656036,908.623291 305.930969,921.919495 
M261.016571,926.746399 
	C265.173431,926.826599 269.336487,927.092285 273.485992,926.953369 
	C288.092468,926.464478 298.754242,918.145813 302.380463,904.015686 
	C305.110199,893.378784 305.141632,882.611389 301.951019,872.009888 
	C298.213409,859.590881 288.705658,851.996887 275.715027,851.139771 
	C271.410919,850.855774 267.061493,851.330505 262.741974,851.185547 
	C259.404358,851.073608 258.475006,852.590515 258.488861,855.671448 
	C258.589355,877.988708 258.563080,900.306580 258.686859,922.623657 
	C258.694458,923.987000 259.639496,925.345154 261.016571,926.746399 
z"/>
<path fill="#1D75A6" opacity="1.000000" stroke="none" 
	d="
M620.709290,877.429138 
	C628.757812,881.816406 636.766174,885.582092 644.230530,890.222839 
	C653.369995,895.905029 658.275879,904.256470 656.677002,915.399902 
	C655.118652,926.261169 648.667664,933.553223 638.219604,935.848694 
	C630.589844,937.524963 622.456604,937.594788 614.591736,937.280762 
	C609.143066,937.063049 603.769165,934.972900 597.919250,933.616882 
	C599.466797,929.535767 600.616577,926.503540 601.850037,923.250671 
	C611.754395,927.054016 621.657776,929.334900 632.099609,927.195984 
	C638.545776,925.875549 643.553650,922.863586 645.195312,915.974304 
	C646.946045,908.627869 643.902771,903.173889 637.751465,899.661621 
	C629.843933,895.146729 621.496521,891.405701 613.554626,886.946533 
	C601.491272,880.173279 596.617676,865.403259 602.987000,854.099792 
	C605.001587,850.524414 608.268677,846.879944 611.868652,845.109375 
	C626.012573,838.152954 640.449341,840.662476 655.256531,844.710632 
	C654.060913,848.305908 653.080383,851.254578 652.100586,854.200806 
	C646.077393,853.179504 640.297363,851.853577 634.445374,851.325684 
	C630.375183,850.958618 626.137512,851.304016 622.098816,852.025513 
	C617.230896,852.895203 613.470032,855.906555 612.187012,860.780029 
	C610.832275,865.925964 612.070557,870.689941 616.436401,874.227173 
	C617.723633,875.270203 619.095093,876.209045 620.709290,877.429138 
z"/>
<path fill="#1E75A6" opacity="1.000000" stroke="none" 
	d="
M943.714478,907.242920 
	C950.666321,916.720276 957.438782,925.886963 964.914978,936.006042 
	C960.388977,936.006042 956.951904,936.295227 953.603943,935.874695 
	C952.099915,935.685791 950.415771,934.353882 949.426270,933.068665 
	C943.553467,925.440796 937.672852,917.804382 932.195312,909.893616 
	C929.872681,906.539185 927.336792,905.270142 923.058777,906.373352 
	C923.058777,916.005798 923.058777,925.762268 923.058777,935.758789 
	C919.350403,935.758789 916.094360,935.758789 912.509155,935.758789 
	C912.509155,904.637512 912.509155,873.587646 912.509155,842.263123 
	C915.890686,842.263123 919.142883,842.263123 922.846985,842.263123 
	C922.846985,860.858521 922.846985,879.444092 922.846985,899.928345 
	C926.064880,897.615723 928.569702,896.496826 930.094971,894.593140 
	C934.867126,888.637085 939.826965,882.711304 943.664307,876.158997 
	C947.824158,869.055969 953.450256,867.748352 961.530823,869.605774 
	C953.287415,880.065002 945.261292,890.248474 936.942810,900.802917 
	C938.808899,902.538025 941.171997,904.735168 943.714478,907.242920 
z"/>
<path fill="#1D74A5" opacity="1.000000" stroke="none" 
	d="
M510.995361,894.852783 
	C513.092712,888.701721 514.118896,882.267090 517.452393,877.418945 
	C524.502930,867.165161 535.378906,865.677917 546.890747,867.694641 
	C558.903992,869.799194 565.195374,877.948303 567.802002,889.077698 
	C570.223206,899.415161 570.079468,909.873352 566.524170,920.056885 
	C562.155151,932.571411 551.804504,938.846924 537.093140,937.997620 
	C524.702698,937.282227 514.627686,929.269104 512.376953,917.091919 
	C511.062500,909.980164 511.384064,902.566101 510.995361,894.852783 
M526.850647,922.521423 
	C536.496521,932.448669 550.828918,930.894104 555.327759,919.019287 
	C559.446655,908.147400 559.500793,896.892212 555.016846,886.019531 
	C552.305054,879.444031 546.950562,876.093994 539.762085,876.018188 
	C532.561340,875.942322 527.122681,878.974731 524.632629,885.876282 
	C520.232971,898.070801 520.279236,910.165283 526.850647,922.521423 
z"/>
<path fill="#1C74A5" opacity="1.000000" stroke="none" 
	d="
M378.000458,903.006348 
	C371.374023,903.006348 365.247467,903.006348 358.817627,903.006348 
	C358.964569,912.044739 359.688019,920.549133 367.632751,925.560913 
	C377.283539,931.648743 386.965210,929.430481 396.311035,923.383545 
	C397.681427,926.104675 398.912109,928.548340 400.251556,931.208008 
	C388.845367,938.360474 377.087494,940.161316 364.708588,935.763733 
	C356.129120,932.715942 351.399689,925.791443 349.326569,917.369873 
	C346.877045,907.419067 346.748199,897.257568 349.403351,887.244995 
	C353.240753,872.774353 366.338593,864.873596 382.294220,867.269104 
	C396.376129,869.383301 403.063019,878.322205 402.442902,894.271606 
	C402.339813,896.923279 402.066681,899.568359 401.814117,903.006348 
	C394.003296,903.006348 386.251831,903.006348 378.000458,903.006348 
M363.163818,881.753601 
	C361.509033,885.892639 359.854279,890.031677 357.963715,894.760498 
	C370.167511,894.760498 380.895813,894.760498 391.600189,894.760498 
	C392.926453,880.675842 384.078857,872.878052 371.337616,876.889893 
	C368.591370,877.754700 366.192139,879.721558 363.163818,881.753601 
z"/>
<path fill="#1D75A6" opacity="1.000000" stroke="none" 
	d="
M787.173584,884.304077 
	C786.087097,879.397034 782.584473,877.317261 778.691406,877.494141 
	C771.987305,877.798828 765.321716,879.081787 758.660706,880.091187 
	C757.268555,880.302185 755.966675,881.108032 754.430908,881.715759 
	C753.383606,879.080139 752.431580,876.684265 751.240662,873.687317 
	C763.953369,868.233459 776.453491,865.378113 789.513550,870.479858 
	C794.447571,872.407166 797.377991,876.779663 797.834045,882.075195 
	C798.355896,888.135681 798.273560,894.255066 798.305359,900.349609 
	C798.366577,912.077271 798.323242,923.805603 798.323242,935.766357 
	C790.728455,938.852356 790.759094,931.552551 788.564453,926.910522 
	C780.823914,936.320923 771.210632,938.915710 760.183228,935.875122 
	C752.101929,933.646851 747.191711,926.610901 747.187683,918.451843 
	C747.183350,909.639771 751.251709,903.150879 759.890137,901.057922 
	C768.674988,898.929565 777.802917,898.217468 787.966492,896.709229 
	C787.779419,893.408813 787.532593,889.055786 787.173584,884.304077 
M787.768982,910.577026 
	C787.670227,909.158997 787.571472,907.741028 787.396362,905.226990 
	C779.837585,906.175293 772.732239,906.650818 765.824890,908.082092 
	C761.343506,909.010559 758.273499,912.333801 758.278687,917.367554 
	C758.283752,922.242432 761.963623,926.492432 766.883606,927.713379 
	C777.630310,930.380188 787.765686,922.502747 787.768982,910.577026 
z"/>
<path fill="#1D74A5" opacity="1.000000" stroke="none" 
	d="
M482.089752,879.237854 
	C474.417328,897.625061 466.882111,915.656189 459.189178,933.619690 
	C458.601349,934.992371 456.953979,936.684448 455.696930,936.772705 
	C454.518707,936.855408 452.605194,935.266296 452.040344,933.967102 
	C443.057678,913.306641 434.237732,892.575256 425.393646,871.854553 
	C425.072937,871.103149 424.884949,870.295044 424.593689,869.383789 
	C425.197510,869.228149 425.626343,869.028381 426.059296,869.019043 
	C436.367554,868.796570 436.510773,868.743713 440.371643,878.496033 
	C445.488647,891.421204 450.348602,904.447937 455.346649,917.420410 
	C455.570099,918.000366 456.067047,918.474976 456.091522,918.509705 
	C461.386322,904.438110 467.036987,890.291077 471.959076,875.895020 
	C473.828461,870.427490 476.380615,867.843323 482.166962,868.961426 
	C483.280945,869.176697 484.472137,868.992310 486.299347,868.992310 
	C484.807739,872.573486 483.497528,875.719116 482.089752,879.237854 
z"/>
<path fill="#1D75A6" opacity="1.000000" stroke="none" 
	d="
M831.675171,905.706543 
	C832.185913,899.473022 832.175232,893.590942 833.316467,887.941528 
	C835.705750,876.113953 844.792480,868.007202 856.999817,867.262939 
	C862.840637,866.906860 868.795959,868.350342 874.693604,869.028809 
	C879.276306,869.556030 879.947021,872.083008 878.098511,875.865967 
	C877.523315,877.043091 877.053833,878.271851 876.764038,878.946167 
	C871.547668,877.936035 866.600098,876.362244 861.593689,876.145142 
	C852.972595,875.771240 847.602417,880.033691 844.844910,888.214844 
	C841.823608,897.178589 842.070190,906.299500 844.471619,915.223511 
	C847.336975,925.871277 857.609497,931.298096 868.266724,928.243103 
	C871.416321,927.340271 874.390137,925.823853 877.746826,924.466309 
	C878.696350,926.695618 879.718262,929.094849 880.941284,931.966309 
	C871.273071,938.295044 860.858582,939.596924 850.064026,936.678467 
	C840.479736,934.087158 835.464966,926.751343 833.216187,917.492798 
	C832.321411,913.808838 832.166992,909.945190 831.675171,905.706543 
z"/>
<path fill="#1E75A6" opacity="1.000000" stroke="none" 
	d="
M705.190979,868.980774 
	C710.632202,868.987305 715.591248,868.987305 720.773804,868.987305 
	C720.773804,872.032288 720.773804,874.643494 720.773804,877.880737 
	C715.021545,877.880737 709.136414,877.880737 703.021912,877.880737 
	C703.021912,892.948547 702.835144,907.398743 703.121704,921.839539 
	C703.224060,926.996155 706.717773,929.540100 711.960693,928.893372 
	C715.036072,928.513977 718.014587,927.348694 721.685730,926.362549 
	C722.362183,928.727173 723.101746,931.312561 724.062866,934.672424 
	C718.822571,935.844543 714.059387,937.493835 709.195618,937.881409 
	C697.528381,938.811035 692.304749,933.915039 692.057495,921.933838 
	C691.796204,909.276367 691.992676,896.609436 691.989380,883.946594 
	C691.988892,882.147522 691.989380,880.348450 691.989380,878.100342 
	C688.394165,878.100342 685.143982,878.100342 681.619141,878.100342 
	C681.619141,874.921387 681.619141,872.194275 681.619141,869.003906 
	C685.061096,869.003906 688.301270,869.003906 691.839844,869.003906 
	C691.839844,864.607605 691.839844,860.656128 691.839844,856.215210 
	C695.387390,855.146912 698.791809,854.121643 702.815369,852.909912 
	C702.815369,857.342651 702.662659,861.288391 702.902344,865.210144 
	C702.980957,866.496826 704.077637,867.721313 705.190979,868.980774 
z"/>
<path fill="#FEFEFE" opacity="1.000000" stroke="none" 
	d="
M720.626587,555.127808 
	C727.436218,559.108521 733.837341,563.105347 740.342651,566.924561 
	C748.441284,571.679138 756.626038,576.287231 765.163696,580.971191 
	C764.118408,582.252502 762.847412,583.803467 761.223816,584.749084 
	C709.375000,614.945435 657.491516,645.082275 605.618835,675.237610 
	C604.904968,675.652649 604.261353,676.188721 603.308350,676.870300 
	C596.220459,673.386169 589.325195,669.846008 582.613464,665.986572 
	C562.243774,654.273254 541.947327,642.432556 521.617981,630.648987 
	C500.865417,618.620056 480.121399,606.576355 459.344910,594.588867 
	C451.898560,590.292542 444.368561,586.141174 436.525818,581.946289 
	C441.079742,578.777893 445.892883,575.433838 450.909302,572.429138 
	C460.081085,566.935425 469.349091,561.600220 478.641541,556.312500 
	C479.988739,555.545898 481.693329,555.407349 483.747223,555.391602 
	C489.215881,558.793579 494.122894,561.863464 499.131592,564.757202 
	C526.485168,580.560547 553.846191,596.351196 581.246704,612.072937 
	C587.769043,615.815369 594.452209,619.277588 601.061401,622.868652 
	C608.006348,619.164490 615.069824,615.664734 621.876160,611.721313 
	C653.649414,593.312073 685.349365,574.776245 717.090942,556.312256 
	C718.062012,555.747375 719.202637,555.474182 720.626587,555.127808 
z"/>
<path fill="#FEFEFE" opacity="1.000000" stroke="none" 
	d="
M481.375000,476.747559 
	C466.301117,468.086731 451.590179,459.505585 436.527466,450.946564 
	C440.110901,448.326324 443.912445,445.454102 448.001709,443.076691 
	C496.031891,415.153290 544.107300,387.307556 592.161316,359.425140 
	C594.569458,358.027832 596.891541,356.482025 599.606201,354.936157 
	C621.566895,367.443298 643.167542,380.032440 664.785217,392.592316 
	C687.413391,405.739349 710.029602,418.907288 732.707703,431.967834 
	C743.326294,438.083191 754.077820,443.967712 765.161560,449.970520 
	C764.436646,451.113983 763.498535,452.549133 762.174255,453.326385 
	C749.456238,460.790771 736.681458,468.158417 723.895996,475.507019 
	C722.632568,476.233154 721.190186,476.647949 719.202637,476.974182 
	C708.724243,470.926636 698.916687,465.038513 689.015869,459.311707 
	C661.040039,443.129913 633.044800,426.981171 604.981262,410.952423 
	C603.245850,409.961243 600.853882,410.119507 598.767395,409.742981 
	C560.948608,431.645813 523.132385,453.553009 485.298431,475.429657 
	C484.207123,476.060669 482.928986,476.368622 481.375000,476.747559 
z"/>
<path fill="#5D9CBF" opacity="1.000000" stroke="none" 
	d="
M601.122803,622.465271 
	C594.452209,619.277588 587.769043,615.815369 581.246704,612.072937 
	C553.846191,596.351196 526.485168,580.560547 499.131592,564.757202 
	C494.122894,561.863464 489.215881,558.793579 484.127930,555.499512 
	C485.788879,553.496643 487.342499,551.390503 489.416534,550.165588 
	C508.457794,538.919556 527.587830,527.823914 546.701843,516.701294 
	C547.261658,516.375549 547.930176,516.236755 549.264709,515.984314 
	C559.711609,521.609375 569.403809,527.327820 579.184021,532.891479 
	C587.078491,537.382385 595.079224,541.686584 603.032776,546.073608 
	C602.688477,553.047424 602.110291,560.019165 602.046875,566.995544 
	C601.899292,583.238281 602.029175,599.483459 601.963440,615.727295 
	C601.954895,617.839844 601.455994,619.950378 601.122803,622.465271 
z"/>
<path fill="#5D9CBF" opacity="1.000000" stroke="none" 
	d="
M599.069458,409.957153 
	C600.853882,410.119507 603.245850,409.961243 604.981262,410.952423 
	C633.044800,426.981171 661.040039,443.129913 689.015869,459.311707 
	C698.916687,465.038513 708.724243,470.926636 718.825195,477.000793 
	C715.178833,479.871796 711.411743,482.707428 707.362061,485.055878 
	C689.366394,495.492035 671.289673,505.788605 652.557556,515.924316 
	C634.567749,505.763275 617.262695,495.813629 599.957642,485.863953 
	C599.793335,482.661774 599.452637,479.457336 599.493164,476.257751 
	C599.762695,454.961639 600.124634,433.666656 600.392029,412.370544 
	C600.401184,411.641846 599.727173,410.904602 599.069458,409.957153 
z"/>
<path fill="#FDFEFE" opacity="1.000000" stroke="none" 
	d="
M599.604980,485.933167 
	C617.262695,495.813629 634.567749,505.763275 652.217285,515.864014 
	C647.632935,519.209717 642.793701,522.553894 637.757202,525.568665 
	C626.418701,532.355713 614.982544,538.979614 603.309448,545.871704 
	C595.079224,541.686584 587.078491,537.382385 579.184021,532.891479 
	C569.403809,527.327820 559.711609,521.609375 549.641968,515.949829 
	C556.436401,511.573700 563.534729,507.146210 570.712891,502.852142 
	C580.193298,497.180817 589.736206,491.614075 599.604980,485.933167 
z"/>
<path fill="#FDFEFE" opacity="1.000000" stroke="none" 
	d="
M260.582458,926.726074 
	C259.639496,925.345154 258.694458,923.987000 258.686859,922.623657 
	C258.563080,900.306580 258.589355,877.988708 258.488861,855.671448 
	C258.475006,852.590515 259.404358,851.073608 262.741974,851.185547 
	C267.061493,851.330505 271.410919,850.855774 275.715027,851.139771 
	C288.705658,851.996887 298.213409,859.590881 301.951019,872.009888 
	C305.141632,882.611389 305.110199,893.378784 302.380463,904.015686 
	C298.754242,918.145813 288.092468,926.464478 273.485992,926.953369 
	C269.336487,927.092285 265.173431,926.826599 260.582458,926.726074 
z"/>
<path fill="#FDFEFE" opacity="1.000000" stroke="none" 
	d="
M526.661621,922.201172 
	C520.279236,910.165283 520.232971,898.070801 524.632629,885.876282 
	C527.122681,878.974731 532.561340,875.942322 539.762085,876.018188 
	C546.950562,876.093994 552.305054,879.444031 555.016846,886.019531 
	C559.500793,896.892212 559.446655,908.147400 555.327759,919.019287 
	C550.828918,930.894104 536.496521,932.448669 526.661621,922.201172 
z"/>
<path fill="#FDFEFE" opacity="1.000000" stroke="none" 
	d="
M363.398438,881.467163 
	C366.192139,879.721558 368.591370,877.754700 371.337616,876.889893 
	C384.078857,872.878052 392.926453,880.675842 391.600189,894.760498 
	C380.895813,894.760498 370.167511,894.760498 357.963715,894.760498 
	C359.854279,890.031677 361.509033,885.892639 363.398438,881.467163 
z"/>
<path fill="#FAFCFD" opacity="1.000000" stroke="none" 
	d="
M787.768921,911.028809 
	C787.765686,922.502747 777.630310,930.380188 766.883606,927.713379 
	C761.963623,926.492432 758.283752,922.242432 758.278687,917.367554 
	C758.273499,912.333801 761.343506,909.010559 765.824890,908.082092 
	C772.732239,906.650818 779.837585,906.175293 787.396362,905.226990 
	C787.571472,907.741028 787.670227,909.158997 787.768921,911.028809 
z"/>
</svg>