<svg width="34" height="32" viewBox="0 0 34 32" fill="none" xmlns="http://www.w3.org/2000/svg">
  <path fill-rule="evenodd" clip-rule="evenodd"
    d="M31.0732 20.9516L26.2457 13.5799C25.1388 13.8116 24.0384 14.0824 22.9481 14.3854L28.3961 22.7047C29.48 24.3598 28.244 26.4 26.5266 26.4H5.47344C3.97505 26.4 2.84321 24.8471 3.29864 23.3518C3.29908 23.3512 3.29951 23.3506 3.29995 23.35C5.43629 18.4842 14.5841 15.0311 19.5507 13.3384C22.2428 12.4209 25.0209 11.6638 27.8312 11.1761L27.684 12.2258C27.6369 12.5621 28.0039 12.8005 28.292 12.6206L30.3817 11.3158C30.541 11.2163 30.7304 11.176 30.9165 11.2021L33.3561 11.5442C33.6925 11.5914 33.9309 11.2243 33.751 10.9362L32.4462 8.84658C32.3466 8.6872 32.3064 8.49787 32.3325 8.31178L32.6746 5.87209C32.7217 5.53573 32.3547 5.29737 32.0666 5.47727L29.9769 6.78207C29.8176 6.8816 29.6282 6.92184 29.4421 6.89575L27.0024 6.55368C26.6661 6.50652 26.4277 6.87356 26.6076 7.16166L27.2165 8.13681C25.8919 8.38752 24.5757 8.69136 23.2715 9.03815L20.5466 4.87706C18.3837 1.57435 13.6163 1.57435 11.4534 4.87706L0.926934 20.9516C-1.49397 24.6483 1.10913 29.6 5.47344 29.6H26.5266C30.8908 29.6 33.494 24.6483 31.0732 20.9516ZM20.0635 9.98055L17.8695 6.63021C16.97 5.2567 15.0301 5.25665 14.1305 6.63015L8.12943 15.7941C11.678 13.1271 15.8574 11.3296 20.0635 9.98055Z"
    fill="#0080ff"></path>
</svg>